<?xml version="1.0" encoding="UTF-8"?>
<svg id="Layer_1" xmlns="http://www.w3.org/2000/svg" viewBox="0 0 263.79 188.32">
  <path d="M0,9.23V0h263.79v9.23H0Z"/>
  <path d="M62.14,156.14c1.12.05,2.05.13,2.97.13,15.59,0,31.18,0,46.78,0,3.99,0,6.78-2.81,6.78-6.81,0-5.56,0-11.12,0-16.92h12.73v34.87H20.9v-11h17.91V37.01h-17.86v-11.3h107.15v32.88h-12.87c0-4.98.02-9.7,0-14.42-.02-4.59-2.77-7.28-7.39-7.29-13.91,0-27.81,0-41.72,0-1.25,0-2.49,0-3.96,0v52.11c.88.09,1.69.23,2.5.23,9.59.02,19.17.02,28.76,0,3.6,0,5.53-1.99,5.56-5.64.01-1.77,0-3.54,0-5.55h12.73v34.14h-12.74c0-1.8.01-3.64,0-5.48-.03-3.88-1.92-5.82-5.72-5.83-9.38-.01-18.75,0-28.13,0-.92,0-1.85.11-2.97.18v55.08Z"/>
  <path d="M.03,188.32v-9.17h263.76v9.17H.03Z"/>
  <path d="M219.52,168.21c-2.4-.26-4.83-.35-7.2-.8-10.14-1.95-16.47-7.98-18.76-18.07-1.37-6.03-1.45-12.11.17-18.13,2.97-11.08,11-17.75,22.44-18.5,2.93-.19,5.93-.23,8.82.21,13.74,2.09,20.58,10.03,21.41,24.96.2,3.53-.06,7.2-.8,10.66-2.75,12.79-11.86,19.48-26.08,19.67ZM204.19,139.93c0,5.2.42,10.32,2.96,15,3.2,5.91,9.1,8.81,16.27,7.69,6.03-.94,8.66-5.49,10.19-10.79.64-2.21.99-4.54,1.14-6.83.49-7.54.28-15-4.24-21.54-5.61-8.12-18.17-7.62-23.09.9-2.78,4.82-3.18,10.17-3.24,15.57Z"/>
  <path d="M215.11,27.6c2.6.33,5.24.48,7.8,1.01,8.95,1.88,14.74,7.3,17.2,16.1,1.72,6.17,1.94,12.47.61,18.75-2.51,11.86-11.49,19.24-24.11,19.63-3.44.11-6.99-.09-10.32-.86-9.45-2.18-15.45-8.05-17.66-17.63-1.35-5.84-1.47-11.69-.14-17.51,2.9-12.65,12.2-19.33,26.63-19.49ZM198.65,54.91c.59,5.82,1,11.49,4.34,16.41,3.63,5.35,8.95,7.25,15.1,6.42,5.66-.76,8.64-4.84,10.22-9.96.71-2.29,1.15-4.7,1.36-7.09.64-6.98.44-13.9-2.95-20.28-3-5.64-7.94-7.86-14.16-7.43-5.97.41-9.74,3.91-11.42,9.34-1.25,4.06-1.69,8.38-2.49,12.58Z"/>
  <path d="M161.62,159.91c4.4-12.93,9.09-26.73,13.92-40.93-1.81-.15-3.52-.3-5.51-.46v-4.6h18.86v4.35c-.24.11-.54.4-.77.35-4.56-.87-5.94,1.82-7.24,5.59-4.67,13.51-9.7,26.89-14.6,40.31-.28.78-.65,1.53-1.03,2.4h-10.97c-2.62-6.53-5.24-13.05-7.86-19.57-3.33-8.29-6.79-16.53-9.94-24.89-1.03-2.74-2.26-4.35-5.38-3.78-.48.09-1.02-.12-1.72-.22v-4.64h23.74v4.72c-2.08.12-4.02.22-6.22.34,5.09,14.19,10.07,28.07,14.72,41.02Z"/>
  <path d="M177.22,43.8h-9.06v-8.97c-7.42-3.62-16.89-.35-19.62,6.84-2.72,7.16-3.15,14.63-.77,21.97,3.55,10.94,15.76,15.15,26.09,9.22.81-.47,1.6-.97,2.73-1.67.85,1.38,1.65,2.66,2.5,4.04-5.95,6.73-13.39,8.84-21.77,7.7-14.06-1.91-21.46-9.96-22.25-24.17-.22-3.85-.06-7.82.66-11.6,1.99-10.56,8.56-16.93,19.08-18.81,6.56-1.17,13.2-.95,19.67,1.1,1.97.62,2.92,1.61,2.8,3.84-.19,3.43-.05,6.88-.05,10.5Z"/>
</svg>